<svg width="54" height="31" viewBox="0 0 54 31" fill="none" xmlns="http://www.w3.org/2000/svg">
<path d="M31.525 26C31.6417 25.05 31.7583 24.1042 31.875 23.1625C31.9917 22.2208 32.1167 21.2 32.25 20.1L33 14.1875C33.1333 13.0958 33.2583 12.0792 33.375 11.1375C33.4917 10.1875 33.6167 9.2 33.75 8.175H36.7C37.1833 9.35 37.6417 10.4833 38.075 11.575C38.5167 12.6583 38.9542 13.7417 39.3875 14.825L41.9625 21.2H42.175L44.7 14.825C45.125 13.7417 45.55 12.6625 45.975 11.5875C46.4083 10.5125 46.8583 9.375 47.325 8.175H50.2625C50.3875 9.19167 50.5083 10.175 50.625 11.125C50.7417 12.0667 50.8708 13.0875 51.0125 14.1875L51.75 20.15C51.8833 21.225 52.0083 22.225 52.125 23.15C52.2417 24.075 52.3583 25.025 52.475 26H49.675C49.5 24.5417 49.3333 23.1542 49.175 21.8375C49.0167 20.5208 48.8667 19.2917 48.725 18.15L48.125 13.225H47.9125L45.9125 18.525C45.4208 19.8167 44.9292 21.1042 44.4375 22.3875C43.9542 23.6708 43.5042 24.875 43.0875 26H41.1125C40.8375 25.2833 40.5333 24.5083 40.2 23.675C39.8667 22.8417 39.525 21.9875 39.175 21.1125C38.8333 20.2375 38.4958 19.3833 38.1625 18.55L36.05 13.225H35.8375L35.25 18.125C35.1083 19.275 34.9583 20.5125 34.8 21.8375C34.6417 23.1542 34.4708 24.5417 34.2875 26H31.525Z" fill="#2B625E"/>
<path d="M2.1 26C2.1 25.0167 2.1 24.0708 2.1 23.1625C2.1 22.2542 2.1 21.2458 2.1 20.1375V14.125C2.1 13.0083 2.1 11.9833 2.1 11.05C2.1 10.1167 2.1 9.15833 2.1 8.175C2.8 8.175 3.7125 8.175 4.8375 8.175C5.9625 8.175 7.25417 8.175 8.7125 8.175C10.1042 8.175 11.2583 8.35417 12.175 8.7125C13.0917 9.07083 13.7792 9.6375 14.2375 10.4125C14.6958 11.1875 14.925 12.2042 14.925 13.4625C14.925 14.5792 14.7208 15.5708 14.3125 16.4375C13.9042 17.3042 13.2292 17.9833 12.2875 18.475C11.3458 18.9667 10.075 19.2125 8.475 19.2125C8.06667 19.2125 7.625 19.2125 7.15 19.2125C6.68333 19.2125 6.225 19.2125 5.775 19.2125C5.325 19.2125 4.9375 19.2125 4.6125 19.2125V16.825H7.8625C8.80417 16.825 9.575 16.7125 10.175 16.4875C10.775 16.2625 11.2167 15.9042 11.5 15.4125C11.7917 14.9208 11.9375 14.2792 11.9375 13.4875C11.9375 12.8375 11.8333 12.3208 11.625 11.9375C11.4167 11.5458 11.1417 11.2542 10.8 11.0625C10.4667 10.8625 10.0958 10.7292 9.6875 10.6625C9.2875 10.5958 8.89583 10.5625 8.5125 10.5625H3.575L5 8.625C5 9.60833 5 10.5667 5 11.5C5 12.425 5 13.45 5 14.575V20.1375C5 21.2458 5 22.2542 5 23.1625C5 24.0708 5 25.0167 5 26H2.1Z" fill="#2B625E"/>
<path d="M26.7625 26C26.0542 25.1667 25.3917 24.3833 24.775 23.65C24.1583 22.9167 23.5542 22.2 22.9625 21.5L19.95 17.9375H18.7625V15.5875H19.925L22.5625 12.6375C23.1875 11.9458 23.8 11.2583 24.4 10.575C25.0083 9.88333 25.7167 9.08333 26.525 8.175H30C29.1333 9.11667 28.2875 10.0417 27.4625 10.95C26.6458 11.85 25.825 12.7583 25 13.675L21.875 17.125L21.825 15.825L25.3 19.975C25.8417 20.6083 26.4167 21.2917 27.025 22.025C27.6417 22.7583 28.2417 23.475 28.825 24.175C29.4167 24.8667 29.9333 25.475 30.375 26H26.7625ZM16.1125 26C16.1125 25.0167 16.1125 24.0708 16.1125 23.1625C16.1125 22.2542 16.1125 21.2458 16.1125 20.1375V14.1375C16.1125 13.0042 16.1125 11.975 16.1125 11.05C16.1125 10.125 16.1125 9.16667 16.1125 8.175H19.0375C19.0375 9.16667 19.0375 10.125 19.0375 11.05C19.0375 11.975 19.0375 13.0042 19.0375 14.1375V20.1375C19.0375 21.2458 19.0375 22.2542 19.0375 23.1625C19.0375 24.0708 19.0375 25.0167 19.0375 26H16.1125Z" fill="#1C0F13"/>
</svg>
